<?xml version="1.0" encoding="UTF-8" standalone="no"?>
<!-- Created with Inkscape (http://www.inkscape.org/) -->

<svg
   xmlns:dc="http://purl.org/dc/elements/1.1/"
   xmlns:cc="http://creativecommons.org/ns#"
   xmlns:rdf="http://www.w3.org/1999/02/22-rdf-syntax-ns#"
   xmlns:svg="http://www.w3.org/2000/svg"
   xmlns="http://www.w3.org/2000/svg"
   xmlns:sodipodi="http://sodipodi.sourceforge.net/DTD/sodipodi-0.dtd"
   xmlns:inkscape="http://www.inkscape.org/namespaces/inkscape"
   width="46.18417mm"
   height="17.145002mm"
   viewBox="0 0 46.18417 17.145002"
   version="1.1"
   id="svg5207"
   inkscape:version="0.92.4 (5da689c313, 2019-01-14)"
   sodipodi:docname="aquiestamos.svg">
  <defs
     id="defs5201" />
  <sodipodi:namedview
     id="base"
     pagecolor="#ffffff"
     bordercolor="#666666"
     borderopacity="1.0"
     inkscape:pageopacity="0.0"
     inkscape:pageshadow="2"
     inkscape:zoom="15.839192"
     inkscape:cx="81.948111"
     inkscape:cy="10.650676"
     inkscape:document-units="mm"
     inkscape:current-layer="layer1"
     showgrid="false"
     inkscape:window-width="3840"
     inkscape:window-height="2066"
     inkscape:window-x="-11"
     inkscape:window-y="-11"
     inkscape:window-maximized="1" />
  <metadata
     id="metadata5204">
    <rdf:RDF>
      <cc:Work
         rdf:about="">
        <dc:format>image/svg+xml</dc:format>
        <dc:type
           rdf:resource="http://purl.org/dc/dcmitype/StillImage" />
        <dc:title></dc:title>
      </cc:Work>
    </rdf:RDF>
  </metadata>
  <g
     inkscape:label="Layer 1"
     inkscape:groupmode="layer"
     id="layer1"
     transform="translate(-11.180016,-33.88321)">
    <g
       id="g5822"
       style="opacity:0.5"
       transform="translate(-13.890625,-4.9136905)">
      <path
         d="m 30.684107,41.336901 v 1.651 h 3.100916 v 0.497416 c -0.3175,-0.04233 -0.624416,-0.07408 -0.899583,-0.07408 -1.534583,0 -2.561167,0.772583 -2.561167,1.93675 0,1.153583 0.846667,1.915583 2.106084,1.915583 0.529166,0 1.047749,-0.211666 1.407583,-0.624416 l 0.02117,0.518583 h 2.042584 v -5.820833 z m 2.360083,4.434416 c -0.391583,0 -0.529167,-0.179916 -0.529167,-0.465666 0,-0.275167 0.254,-0.465667 0.645584,-0.465667 0.190499,0 0.402166,0.02117 0.624416,0.05292 -0.01058,0.550333 -0.306917,0.878416 -0.740833,0.878416 z"
         style="font-style:normal;font-variant:normal;font-weight:900;font-stretch:normal;font-size:10.58333302px;line-height:1.25;font-family:'Bw Modelica SS02';-inkscape-font-specification:'Bw Modelica SS02 Heavy';letter-spacing:0px;word-spacing:0px;fill:#3dae2b;fill-opacity:1;stroke:none;stroke-width:0.26458332"
         id="path5777"
         inkscape:connector-curvature="0" />
      <path
         d="m 41.218492,41.336901 -0.03175,0.592666 c -0.381,-0.4445 -0.92075,-0.6985 -1.608667,-0.6985 -1.513416,0 -2.772833,1.185334 -2.772833,2.9845 0,1.820334 1.259417,3.048 2.772833,3.048 0.656167,0 1.17475,-0.232833 1.55575,-0.645583 v 2.868083 h 2.116667 v -8.149166 z m -1.164167,4.116916 c -0.635,0 -1.068916,-0.486833 -1.068916,-1.217083 0,-0.709083 0.433916,-1.195917 1.068916,-1.195917 0.645584,0 1.0795,0.47625 1.0795,1.2065 0,0.719667 -0.433916,1.2065 -1.0795,1.2065 z"
         style="font-style:normal;font-variant:normal;font-weight:900;font-stretch:normal;font-size:10.58333302px;line-height:1.25;font-family:'Bw Modelica SS02';-inkscape-font-specification:'Bw Modelica SS02 Heavy';letter-spacing:0px;word-spacing:0px;fill:#3dae2b;fill-opacity:1;stroke:none;stroke-width:0.26458332"
         id="path5779"
         inkscape:connector-curvature="0" />
      <path
         d="m 47.223045,47.263567 c 1.7145,0 2.8575,-1.016 2.8575,-2.518833 v -3.407833 h -2.116667 v 3.33375 c 0,0.465666 -0.296333,0.783166 -0.740833,0.783166 -0.455084,0 -0.751417,-0.3175 -0.751417,-0.783166 v -3.33375 h -2.116667 v 3.407833 c 0,1.513417 1.143,2.518833 2.868084,2.518833 z"
         style="font-style:normal;font-variant:normal;font-weight:900;font-stretch:normal;font-size:10.58333302px;line-height:1.25;font-family:'Bw Modelica SS02';-inkscape-font-specification:'Bw Modelica SS02 Heavy';letter-spacing:0px;word-spacing:0px;fill:#3dae2b;fill-opacity:1;stroke:none;stroke-width:0.26458332"
         id="path5781"
         inkscape:connector-curvature="0" />
      <path
         d="m 50.965575,40.627817 h 1.778 l 2.137834,-1.830916 h -2.423584 z m 0.243417,6.529917 h 2.116667 v -5.820833 h -2.116667 z"
         style="font-style:normal;font-variant:normal;font-weight:900;font-stretch:normal;font-size:10.58333302px;line-height:1.25;font-family:'Bw Modelica SS02';-inkscape-font-specification:'Bw Modelica SS02 Heavy';letter-spacing:0px;word-spacing:0px;fill:#3dae2b;fill-opacity:1;stroke:none;stroke-width:0.26458332"
         id="path5783"
         inkscape:connector-curvature="0" />
      <path
         d="m 31.166641,52.8304 c 0,-1.756833 -1.217083,-2.921 -3.048,-2.921 -1.830917,0 -3.048,1.248834 -3.048,3.100917 0,1.767417 1.27,2.931583 3.153833,2.931583 1.164167,0 2.106084,-0.529166 2.582334,-1.259416 l -1.640417,-0.79375 c -0.232833,0.254 -0.560917,0.402166 -0.973667,0.402166 -0.53975,0 -0.772583,-0.232833 -0.867833,-0.624416 h 3.788833 c 0.03175,-0.243417 0.05292,-0.550334 0.05292,-0.836084 z m -3.048,-1.27 c 0.465667,0 0.719667,0.232834 0.8255,0.6985 h -1.61925 c 0.105833,-0.455083 0.34925,-0.6985 0.79375,-0.6985 z"
         style="font-style:normal;font-variant:normal;font-weight:900;font-stretch:normal;font-size:10.58333302px;line-height:1.25;font-family:'Bw Modelica SS02';-inkscape-font-specification:'Bw Modelica SS02 Heavy';letter-spacing:0px;word-spacing:0px;fill:#3dae2b;fill-opacity:1;stroke:none;stroke-width:0.26458332"
         id="path5785"
         inkscape:connector-curvature="0" />
      <path
         d="m 34.244407,55.9419 c 1.566333,0 2.63525,-0.783166 2.63525,-1.979083 0,-1.090083 -0.762,-1.566333 -1.87325,-1.8415 l -0.338667,-0.08467 c -0.391583,-0.09525 -0.66675,-0.179916 -0.66675,-0.3175 0,-0.116416 0.201083,-0.15875 0.508,-0.15875 0.47625,0 0.931333,0.116417 1.386417,0.34925 l 0.878416,-1.36525 c -0.592666,-0.41275 -1.42875,-0.635 -2.402416,-0.635 -1.524,0 -2.518834,0.85725 -2.518834,2.148417 0,0.963083 0.709084,1.354667 1.756834,1.608667 l 0.34925,0.08467 c 0.47625,0.116417 0.772583,0.1905 0.772583,0.359834 0,0.137583 -0.1905,0.1905 -0.455083,0.1905 -0.53975,0 -1.058334,-0.09525 -1.661584,-0.391584 l -0.783166,1.27 c 0.624416,0.518584 1.4605,0.762 2.413,0.761999 z"
         style="font-style:normal;font-variant:normal;font-weight:900;font-stretch:normal;font-size:10.58333302px;line-height:1.25;font-family:'Bw Modelica SS02';-inkscape-font-specification:'Bw Modelica SS02 Heavy';letter-spacing:0px;word-spacing:0px;fill:#3dae2b;fill-opacity:1;stroke:none;stroke-width:0.26458332"
         id="path5787"
         inkscape:connector-curvature="0" />
      <path
         d="m 41.631241,50.015234 h -1.026583 v -1.703917 h -2.116667 v 1.703917 h -1.016 v 1.725083 h 1.016 v 4.09575 h 2.116667 v -4.09575 h 1.026583 z"
         style="font-style:normal;font-variant:normal;font-weight:900;font-stretch:normal;font-size:10.58333302px;line-height:1.25;font-family:'Bw Modelica SS02';-inkscape-font-specification:'Bw Modelica SS02 Heavy';letter-spacing:0px;word-spacing:0px;fill:#3dae2b;fill-opacity:1;stroke:none;stroke-width:0.26458332"
         id="path5789"
         inkscape:connector-curvature="0" />
      <path
         d="m 42.431275,50.015234 v 1.651 h 3.100917 v 0.497416 c -0.3175,-0.04233 -0.624417,-0.07408 -0.899584,-0.07408 -1.534583,0 -2.561166,0.772583 -2.561166,1.93675 0,1.153583 0.846666,1.915583 2.106083,1.915583 0.529167,0 1.04775,-0.211666 1.407583,-0.624416 l 0.02117,0.518583 h 2.042583 v -5.820833 z m 2.360083,4.434416 c -0.391583,0 -0.529166,-0.179916 -0.529166,-0.465666 0,-0.275167 0.254,-0.465667 0.645583,-0.465667 0.1905,0 0.402167,0.02117 0.624417,0.05292 -0.01058,0.550333 -0.306917,0.878416 -0.740834,0.878416 z"
         style="font-style:normal;font-variant:normal;font-weight:900;font-stretch:normal;font-size:10.58333302px;line-height:1.25;font-family:'Bw Modelica SS02';-inkscape-font-specification:'Bw Modelica SS02 Heavy';letter-spacing:0px;word-spacing:0px;fill:#3dae2b;fill-opacity:1;stroke:none;stroke-width:0.26458332"
         id="path5791"
         inkscape:connector-curvature="0" />
      <path
         d="m 55.780827,49.9094 c -0.635,0 -1.280583,0.201084 -1.74625,0.677334 C 53.66416,50.152817 53.12441,49.9094 52.468244,49.9094 c -0.560917,0 -1.132417,0.201084 -1.566333,0.624417 l -0.02117,-0.518583 h -2.042583 v 5.820833 h 2.116666 v -3.33375 c 0,-0.47625 0.296334,-0.783167 0.751417,-0.783167 0.455083,0 0.751416,0.306917 0.751416,0.783167 v 3.33375 h 2.116667 v -3.33375 c 0,-0.47625 0.296333,-0.783167 0.751417,-0.783167 0.455083,0 0.751416,0.306917 0.751416,0.783167 v 3.33375 h 2.116667 V 52.1954 c 0,-1.375833 -0.973667,-2.286 -2.413,-2.286 z"
         style="font-style:normal;font-variant:normal;font-weight:900;font-stretch:normal;font-size:10.58333302px;line-height:1.25;font-family:'Bw Modelica SS02';-inkscape-font-specification:'Bw Modelica SS02 Heavy';letter-spacing:0px;word-spacing:0px;fill:#3dae2b;fill-opacity:1;stroke:none;stroke-width:0.26458332"
         id="path5793"
         inkscape:connector-curvature="0" />
      <path
         d="m 62.292058,55.9419 c 1.93675,0 3.2385,-1.2065 3.2385,-3.01625 0,-1.80975 -1.30175,-3.01625 -3.2385,-3.01625 -1.957917,0 -3.259667,1.2065 -3.259667,3.01625 0,1.80975 1.30175,3.01625 3.259667,3.01625 z m -0.01058,-1.80975 c -0.635,0 -1.068916,-0.486833 -1.068916,-1.2065 0,-0.73025 0.433916,-1.2065 1.068916,-1.2065 0.635,0 1.058334,0.47625 1.058334,1.2065 0,0.719667 -0.423334,1.2065 -1.058334,1.2065 z"
         style="font-style:normal;font-variant:normal;font-weight:900;font-stretch:normal;font-size:10.58333302px;line-height:1.25;font-family:'Bw Modelica SS02';-inkscape-font-specification:'Bw Modelica SS02 Heavy';letter-spacing:0px;word-spacing:0px;fill:#3dae2b;fill-opacity:1;stroke:none;stroke-width:0.26458332"
         id="path5795"
         inkscape:connector-curvature="0" />
      <path
         d="m 68.619562,55.9419 c 1.56634,0 2.63525,-0.783166 2.63525,-1.979083 0,-1.090083 -0.762,-1.566333 -1.87325,-1.8415 l -0.33866,-0.08467 c -0.39159,-0.09525 -0.66675,-0.179916 -0.66675,-0.3175 0,-0.116416 0.20108,-0.15875 0.508,-0.15875 0.47625,0 0.93133,0.116417 1.38641,0.34925 l 0.87842,-1.36525 c -0.59267,-0.41275 -1.42875,-0.635 -2.40242,-0.635 -1.524,0 -2.51883,0.85725 -2.51883,2.148417 0,0.963083 0.70908,1.354667 1.75683,1.608667 l 0.34925,0.08467 c 0.47625,0.116417 0.77259,0.1905 0.77259,0.359834 0,0.137583 -0.1905,0.1905 -0.45509,0.1905 -0.53975,0 -1.05833,-0.09525 -1.66158,-0.391584 l -0.78317,1.27 c 0.62442,0.518584 1.4605,0.762 2.413,0.761999 z"
         style="font-style:normal;font-variant:normal;font-weight:900;font-stretch:normal;font-size:10.58333302px;line-height:1.25;font-family:'Bw Modelica SS02';-inkscape-font-specification:'Bw Modelica SS02 Heavy';letter-spacing:0px;word-spacing:0px;fill:#3dae2b;fill-opacity:1;stroke:none;stroke-width:0.26458332"
         id="path5797"
         inkscape:connector-curvature="0" />
    </g>
  </g>
</svg>
