<?xml version="1.0" encoding="UTF-8" standalone="no"?>
<svg
   xmlns:dc="http://purl.org/dc/elements/1.1/"
   xmlns:cc="http://creativecommons.org/ns#"
   xmlns:rdf="http://www.w3.org/1999/02/22-rdf-syntax-ns#"
   xmlns:svg="http://www.w3.org/2000/svg"
   xmlns="http://www.w3.org/2000/svg"
   xmlns:sodipodi="http://sodipodi.sourceforge.net/DTD/sodipodi-0.dtd"
   xmlns:inkscape="http://www.inkscape.org/namespaces/inkscape"
   width="34.965675mm"
   height="17.645439mm"
   viewBox="0 0 34.965675 17.645439"
   version="1.1"
   id="svg8"
   sodipodi:docname="IniciarSesion.svg"
   inkscape:version="0.92.4 (5da689c313, 2019-01-14)">
  <sodipodi:namedview
     pagecolor="#ffffff"
     bordercolor="#666666"
     borderopacity="1"
     objecttolerance="10"
     gridtolerance="10"
     guidetolerance="10"
     inkscape:pageopacity="0"
     inkscape:pageshadow="2"
     inkscape:window-width="3840"
     inkscape:window-height="2066"
     id="namedview5117"
     showgrid="false"
     inkscape:zoom="24.585003"
     inkscape:cx="66.076867"
     inkscape:cy="33.345712"
     inkscape:window-x="-11"
     inkscape:window-y="-11"
     inkscape:window-maximized="1"
     inkscape:current-layer="svg8" />
  <defs
     id="defs2" />
  <metadata
     id="metadata5">
    <rdf:RDF>
      <cc:Work
         rdf:about="">
        <dc:format>image/svg+xml</dc:format>
        <dc:type
           rdf:resource="http://purl.org/dc/dcmitype/StillImage" />
        <dc:title />
      </cc:Work>
    </rdf:RDF>
  </metadata>
  <g
     id="g985"
     style="opacity:0.8">
    <path
       id="path851"
       style="font-style:normal;font-variant:normal;font-weight:900;font-stretch:normal;font-size:10.58333302px;line-height:1.25;font-family:'Bw Modelica SS02';-inkscape-font-specification:'Bw Modelica SS02 Heavy';letter-spacing:0px;word-spacing:0px;fill:#39b54a;fill-opacity:1;stroke:none;stroke-width:0.26458332"
       d="M 1.2065,2.402417 C 1.905,2.402417 2.402417,1.905 2.402417,1.2065 2.402417,0.508 1.905,0 1.2065,0 0.508,0 0,0.508 0,1.2065 0,1.905 0.508,2.402417 1.2065,2.402417 Z M 0.137584,8.657167 H 2.25425 V 2.836334 H 0.137584 Z" />
    <path
       id="path853"
       style="font-style:normal;font-variant:normal;font-weight:900;font-stretch:normal;font-size:10.58333302px;line-height:1.25;font-family:'Bw Modelica SS02';-inkscape-font-specification:'Bw Modelica SS02 Heavy';letter-spacing:0px;word-spacing:0px;fill:#39b54a;fill-opacity:1;stroke:none;stroke-width:0.26458332"
       d="m 7.212542,2.7305 c -0.60325,0 -1.23825,0.211667 -1.703917,0.677334 l -0.02117,-0.5715 H 3.444871 v 5.820833 h 2.116667 v -3.33375 c 0,-0.47625 0.34925,-0.783167 0.889,-0.783167 0.53975,0 0.889,0.306917 0.889,0.783167 v 3.33375 H 9.456204 V 5.0165 c 0,-1.375833 -0.899583,-2.286 -2.243666,-2.286 z" />
    <path
       id="path855"
       style="font-style:normal;font-variant:normal;font-weight:900;font-stretch:normal;font-size:10.58333302px;line-height:1.25;font-family:'Bw Modelica SS02';-inkscape-font-specification:'Bw Modelica SS02 Heavy';letter-spacing:0px;word-spacing:0px;fill:#39b54a;fill-opacity:1;stroke:none;stroke-width:0.26458332"
       d="m 11.645139,2.402417 c 0.6985,0 1.195917,-0.497417 1.195917,-1.195917 C 12.841056,0.508 12.343639,0 11.645139,0 c -0.6985,0 -1.2065,0.508 -1.2065,1.2065 0,0.6985 0.508,1.195917 1.2065,1.195917 z m -1.068916,6.25475 h 2.116666 V 2.836334 h -2.116666 z" />
    <path
       id="path857"
       style="font-style:normal;font-variant:normal;font-weight:900;font-stretch:normal;font-size:10.58333302px;line-height:1.25;font-family:'Bw Modelica SS02';-inkscape-font-specification:'Bw Modelica SS02 Heavy';letter-spacing:0px;word-spacing:0px;fill:#39b54a;fill-opacity:1;stroke:none;stroke-width:0.26458332"
       d="m 16.910348,8.763 c 0.381,0 0.878416,-0.09525 1.153583,-0.254 V 6.57225 c -0.211667,0.22225 -0.624417,0.381 -1.037167,0.381 -0.740833,0 -1.23825,-0.486833 -1.23825,-1.2065 0,-0.73025 0.497417,-1.2065 1.23825,-1.2065 0.381,0 0.762,0.137584 0.973667,0.328084 V 2.931584 C 17.704098,2.815167 17.270181,2.7305 16.910348,2.7305 c -1.989667,0 -3.312583,1.2065 -3.312583,3.01625 0,1.80975 1.322916,3.01625 3.312583,3.01625 z" />
    <path
       id="path859"
       style="font-style:normal;font-variant:normal;font-weight:900;font-stretch:normal;font-size:10.58333302px;line-height:1.25;font-family:'Bw Modelica SS02';-inkscape-font-specification:'Bw Modelica SS02 Heavy';letter-spacing:0px;word-spacing:0px;fill:#39b54a;fill-opacity:1;stroke:none;stroke-width:0.26458332"
       d="m 20.161415,2.402417 c 0.6985,0 1.195916,-0.497417 1.195916,-1.195917 C 21.357331,0.508 20.859915,0 20.161415,0 c -0.6985,0 -1.2065,0.508 -1.2065,1.2065 0,0.6985 0.508,1.195917 1.2065,1.195917 z m -1.068917,6.25475 h 2.116667 V 2.836334 h -2.116667 z" />
    <path
       id="path861"
       style="font-style:normal;font-variant:normal;font-weight:900;font-stretch:normal;font-size:10.58333302px;line-height:1.25;font-family:'Bw Modelica SS02';-inkscape-font-specification:'Bw Modelica SS02 Heavy';letter-spacing:0px;word-spacing:0px;fill:#39b54a;fill-opacity:1;stroke:none;stroke-width:0.26458332"
       d="m 22.442124,2.836334 v 1.651 h 3.100917 V 4.98475 c -0.3175,-0.04233 -0.624417,-0.07408 -0.899584,-0.07408 -1.534583,0 -2.561166,0.772583 -2.561166,1.93675 0,1.153583 0.846667,1.915583 2.106083,1.915583 0.529167,0 1.04775,-0.211666 1.407583,-0.624416 l 0.02117,0.518583 H 27.65971 V 2.836337 Z m 2.360083,4.434416 c -0.391583,0 -0.529166,-0.179916 -0.529166,-0.465666 0,-0.275167 0.254,-0.465667 0.645583,-0.465667 0.1905,0 0.402167,0.02117 0.624417,0.05292 -0.01058,0.550333 -0.306917,0.878416 -0.740834,0.878416 z" />
    <path
       id="path863"
       style="font-style:normal;font-variant:normal;font-weight:900;font-stretch:normal;font-size:10.58333302px;line-height:1.25;font-family:'Bw Modelica SS02';-inkscape-font-specification:'Bw Modelica SS02 Heavy';letter-spacing:0px;word-spacing:0px;fill:#39b54a;fill-opacity:1;stroke:none;stroke-width:0.26458332"
       d="M 30.923343,3.481917 30.891593,2.836334 H 28.84901 v 5.820833 h 2.116666 V 5.7785 c 0,-0.645583 0.772584,-1.100666 1.788583,-1.100666 L 32.891843,2.7305 c -0.804333,0 -1.49225,0.28575 -1.9685,0.751417 z" />
    <path
       id="path866"
       style="font-style:normal;font-variant:normal;font-weight:900;font-stretch:normal;font-size:10.58333302px;line-height:1.25;font-family:'Bw Modelica SS02';-inkscape-font-specification:'Bw Modelica SS02 Heavy';letter-spacing:0px;word-spacing:0px;fill:#39b54a;fill-opacity:1;stroke:none;stroke-width:0.26458332"
       d="m 2.413001,17.645439 c 1.566333,0 2.63525,-0.783167 2.63525,-1.979083 0,-1.090084 -0.762,-1.566334 -1.87325,-1.8415 l -0.338667,-0.08467 c -0.391583,-0.09525 -0.66675,-0.179917 -0.66675,-0.3175 0,-0.116417 0.201084,-0.15875 0.508,-0.15875 0.47625,0 0.931334,0.116417 1.386417,0.34925 l 0.878417,-1.36525 c -0.592667,-0.41275 -1.42875,-0.635 -2.402417,-0.635 -1.524,0 -2.518833,0.85725 -2.518833,2.148417 0,0.963083 0.709083,1.354666 1.756833,1.608666 l 0.34925,0.08467 c 0.47625,0.116417 0.772583,0.1905 0.772583,0.359833 0,0.137584 -0.1905,0.1905 -0.455083,0.1905 -0.53975,0 -1.058333,-0.09525 -1.661583,-0.391583 l -0.783167,1.27 c 0.624417,0.518583 1.4605,0.762 2.413,0.762 z" />
    <path
       id="path868"
       style="font-style:normal;font-variant:normal;font-weight:900;font-stretch:normal;font-size:10.58333302px;line-height:1.25;font-family:'Bw Modelica SS02';-inkscape-font-specification:'Bw Modelica SS02 Heavy';letter-spacing:0px;word-spacing:0px;fill:#39b54a;fill-opacity:1;stroke:none;stroke-width:0.26458332"
       d="m 11.840932,14.533939 c 0,-1.756833 -1.217084,-2.921 -3.048,-2.921 -1.830917,0 -3.048,1.248833 -3.048,3.100917 0,1.767416 1.27,2.931583 3.153833,2.931583 1.164167,0 2.106083,-0.529167 2.582333,-1.259417 l -1.640416,-0.79375 c -0.232834,0.254 -0.560917,0.402167 -0.973667,0.402167 -0.53975,0 -0.772583,-0.232833 -0.867833,-0.624417 h 3.788833 c 0.03175,-0.243416 0.05292,-0.550333 0.05292,-0.836083 z m -3.048,-1.27 c 0.465666,0 0.719666,0.232833 0.8255,0.6985 h -1.61925 c 0.105833,-0.455083 0.34925,-0.6985 0.79375,-0.6985 z" />
    <path
       id="path870"
       style="font-style:normal;font-variant:normal;font-weight:900;font-stretch:normal;font-size:10.58333302px;line-height:1.25;font-family:'Bw Modelica SS02';-inkscape-font-specification:'Bw Modelica SS02 Heavy';letter-spacing:0px;word-spacing:0px;fill:#39b54a;fill-opacity:1;stroke:none;stroke-width:0.26458332"
       d="m 14.918697,17.645439 c 1.566334,0 2.63525,-0.783167 2.63525,-1.979083 0,-1.090084 -0.762,-1.566334 -1.87325,-1.8415 l -0.338666,-0.08467 c -0.391584,-0.09525 -0.66675,-0.179917 -0.66675,-0.3175 0,-0.116417 0.201083,-0.15875 0.508,-0.15875 0.47625,0 0.931333,0.116417 1.386416,0.34925 l 0.878417,-1.36525 c -0.592667,-0.41275 -1.42875,-0.635 -2.402417,-0.635 -1.524,0 -2.518833,0.85725 -2.518833,2.148417 0,0.963083 0.709083,1.354666 1.756833,1.608666 l 0.34925,0.08467 c 0.47625,0.116417 0.772584,0.1905 0.772584,0.359833 0,0.137584 -0.1905,0.1905 -0.455084,0.1905 -0.53975,0 -1.058333,-0.09525 -1.661583,-0.391583 l -0.783167,1.27 c 0.624417,0.518583 1.4605,0.762 2.413,0.762 z" />
    <path
       id="path872"
       style="font-style:normal;font-variant:normal;font-weight:900;font-stretch:normal;font-size:10.58333302px;line-height:1.25;font-family:'Bw Modelica SS02';-inkscape-font-specification:'Bw Modelica SS02 Heavy';letter-spacing:0px;word-spacing:0px;fill:#39b54a;fill-opacity:1;stroke:none;stroke-width:0.26458332"
       d="m 19.605295,11.284856 c 0.6985,0 1.195916,-0.497417 1.195916,-1.195917 0,-0.6985 -0.497416,-1.2065 -1.195916,-1.2065 -0.6985,0 -1.2065,0.508 -1.2065,1.2065 0,0.6985 0.508,1.195917 1.2065,1.195917 z m -1.068917,6.25475 h 2.116667 v -5.820834 h -2.116667 z" />
    <path
       id="path874"
       style="font-style:normal;font-variant:normal;font-weight:900;font-stretch:normal;font-size:10.58333302px;line-height:1.25;font-family:'Bw Modelica SS02';-inkscape-font-specification:'Bw Modelica SS02 Heavy';letter-spacing:0px;word-spacing:0px;fill:#39b54a;fill-opacity:1;stroke:none;stroke-width:0.26458332"
       d="m 23.505252,11.009689 h 1.778 l 2.137834,-1.830917 h -2.423584 z m 1.312334,6.63575 c 1.93675,0 3.2385,-1.2065 3.2385,-3.01625 0,-1.80975 -1.30175,-3.01625 -3.2385,-3.01625 -1.957917,0 -3.259667,1.2065 -3.259667,3.01625 0,1.80975 1.30175,3.01625 3.259667,3.01625 z m -0.01058,-1.80975 c -0.635,0 -1.068916,-0.486833 -1.068916,-1.2065 0,-0.73025 0.433916,-1.2065 1.068916,-1.2065 0.635,0 1.058334,0.47625 1.058334,1.2065 0,0.719667 -0.423334,1.2065 -1.058334,1.2065 z" />
    <path
       id="path876"
       style="font-style:normal;font-variant:normal;font-weight:900;font-stretch:normal;font-size:10.58333302px;line-height:1.25;font-family:'Bw Modelica SS02';-inkscape-font-specification:'Bw Modelica SS02 Heavy';letter-spacing:0px;word-spacing:0px;fill:#39b54a;fill-opacity:1;stroke:none;stroke-width:0.26458332"
       d="m 32.722013,11.612939 c -0.60325,0 -1.23825,0.211667 -1.703916,0.677333 l -0.02117,-0.5715 h -2.042583 v 5.820834 h 2.116666 v -3.33375 c 0,-0.47625 0.34925,-0.783167 0.889,-0.783167 0.53975,0 0.889,0.306917 0.889,0.783167 v 3.33375 h 2.116667 v -3.640667 c 0,-1.375833 -0.899583,-2.286 -2.243667,-2.286 z" />
    <g
       transform="translate(-20.828,-32.452952)"
       id="use4530"
       style="font-style:normal;font-variant:normal;font-weight:900;font-stretch:normal;font-size:10.58333302px;line-height:1.25;font-family:'Bw Modelica SS02';-inkscape-font-specification:'Bw Modelica SS02 Heavy';letter-spacing:0px;word-spacing:0px;fill:#39b54a;fill-opacity:1;stroke:none;stroke-width:0.26458332"
       aria-label="iniciar">
      <path
         id="path928"
         style="fill:#39b54a;fill-opacity:1;stroke-width:0.26458332"
         d="m 22.0345,34.855369 c 0.6985,0 1.195917,-0.497417 1.195917,-1.195917 0,-0.6985 -0.497417,-1.2065 -1.195917,-1.2065 -0.6985,0 -1.2065,0.508 -1.2065,1.2065 0,0.6985 0.508,1.195917 1.2065,1.195917 z m -1.068916,6.25475 h 2.116666 v -5.820833 h -2.116666 z" />
      <path
         id="path930"
         style="fill:#39b54a;fill-opacity:1;stroke-width:0.26458332"
         d="m 28.040542,35.183452 c -0.60325,0 -1.23825,0.211667 -1.703917,0.677334 l -0.02117,-0.5715 h -2.042584 v 5.820833 h 2.116667 v -3.33375 c 0,-0.47625 0.34925,-0.783167 0.889,-0.783167 0.53975,0 0.889,0.306917 0.889,0.783167 v 3.33375 h 2.116666 v -3.640667 c 0,-1.375833 -0.899583,-2.286 -2.243666,-2.286 z" />
      <path
         id="path932"
         style="fill:#39b54a;fill-opacity:1;stroke-width:0.26458332"
         d="m 32.473139,34.855369 c 0.6985,0 1.195917,-0.497417 1.195917,-1.195917 0,-0.6985 -0.497417,-1.2065 -1.195917,-1.2065 -0.6985,0 -1.2065,0.508 -1.2065,1.2065 0,0.6985 0.508,1.195917 1.2065,1.195917 z m -1.068916,6.25475 h 2.116666 v -5.820833 h -2.116666 z" />
      <path
         id="path934"
         style="fill:#39b54a;fill-opacity:1;stroke-width:0.26458332"
         d="m 37.738348,41.215952 c 0.381,0 0.878416,-0.09525 1.153583,-0.254 v -1.93675 c -0.211667,0.22225 -0.624417,0.381 -1.037167,0.381 -0.740833,0 -1.23825,-0.486833 -1.23825,-1.2065 0,-0.73025 0.497417,-1.2065 1.23825,-1.2065 0.381,0 0.762,0.137584 0.973667,0.328084 v -1.93675 c -0.296333,-0.116417 -0.73025,-0.201084 -1.090083,-0.201084 -1.989667,0 -3.312583,1.2065 -3.312583,3.01625 0,1.80975 1.322916,3.01625 3.312583,3.01625 z" />
      <path
         id="path936"
         style="fill:#39b54a;fill-opacity:1;stroke-width:0.26458332"
         d="m 40.989415,34.855369 c 0.6985,0 1.195916,-0.497417 1.195916,-1.195917 0,-0.6985 -0.497416,-1.2065 -1.195916,-1.2065 -0.6985,0 -1.2065,0.508 -1.2065,1.2065 0,0.6985 0.508,1.195917 1.2065,1.195917 z m -1.068917,6.25475 h 2.116667 v -5.820833 h -2.116667 z" />
      <path
         id="path938"
         style="fill:#39b54a;fill-opacity:1;stroke-width:0.26458332"
         d="m 43.270124,35.289286 v 1.651 h 3.100917 v 0.497416 c -0.3175,-0.04233 -0.624417,-0.07408 -0.899584,-0.07408 -1.534583,0 -2.561166,0.772583 -2.561166,1.93675 0,1.153583 0.846667,1.915583 2.106083,1.915583 0.529167,0 1.04775,-0.211666 1.407583,-0.624416 l 0.02117,0.518583 h 2.042583 v -5.820833 z m 2.360083,4.434416 c -0.391583,0 -0.529166,-0.179916 -0.529166,-0.465666 0,-0.275167 0.254,-0.465667 0.645583,-0.465667 0.1905,0 0.402167,0.02117 0.624417,0.05292 -0.01058,0.550333 -0.306917,0.878416 -0.740834,0.878416 z" />
      <path
         id="path940"
         style="fill:#39b54a;fill-opacity:1;stroke-width:0.26458332"
         d="m 51.751343,35.934869 -0.03175,-0.645583 H 49.67701 v 5.820833 h 2.116666 v -2.878667 c 0,-0.645583 0.772584,-1.100666 1.788583,-1.100666 l 0.137584,-1.947334 c -0.804333,0 -1.49225,0.28575 -1.9685,0.751417 z" />
    </g>
    <g
       transform="translate(-20.828,-32.452952)"
       id="use4532"
       style="font-style:normal;font-variant:normal;font-weight:900;font-stretch:normal;font-size:10.58333302px;line-height:1.25;font-family:'Bw Modelica SS02';-inkscape-font-specification:'Bw Modelica SS02 Heavy';letter-spacing:0px;word-spacing:0px;fill:#39b54a;fill-opacity:1;stroke:none;stroke-width:0.26458332"
       aria-label="sesión">
      <path
         id="path914"
         style="fill:#39b54a;fill-opacity:1;stroke-width:0.26458332"
         d="m 23.241001,50.098391 c 1.566333,0 2.63525,-0.783167 2.63525,-1.979083 0,-1.090084 -0.762,-1.566334 -1.87325,-1.8415 l -0.338667,-0.08467 c -0.391583,-0.09525 -0.66675,-0.179917 -0.66675,-0.3175 0,-0.116417 0.201084,-0.15875 0.508,-0.15875 0.47625,0 0.931334,0.116417 1.386417,0.34925 l 0.878417,-1.36525 c -0.592667,-0.41275 -1.42875,-0.635 -2.402417,-0.635 -1.524,0 -2.518833,0.85725 -2.518833,2.148417 0,0.963083 0.709083,1.354666 1.756833,1.608666 l 0.34925,0.08467 c 0.47625,0.116417 0.772583,0.1905 0.772583,0.359833 0,0.137584 -0.1905,0.1905 -0.455083,0.1905 -0.53975,0 -1.058333,-0.09525 -1.661583,-0.391583 l -0.783167,1.27 c 0.624417,0.518583 1.4605,0.762 2.413,0.762 z" />
      <path
         id="path916"
         style="fill:#39b54a;fill-opacity:1;stroke-width:0.26458332"
         d="m 32.668932,46.986891 c 0,-1.756833 -1.217084,-2.921 -3.048,-2.921 -1.830917,0 -3.048,1.248833 -3.048,3.100917 0,1.767416 1.27,2.931583 3.153833,2.931583 1.164167,0 2.106083,-0.529167 2.582333,-1.259417 l -1.640416,-0.79375 c -0.232834,0.254 -0.560917,0.402167 -0.973667,0.402167 -0.53975,0 -0.772583,-0.232833 -0.867833,-0.624417 h 3.788833 c 0.03175,-0.243416 0.05292,-0.550333 0.05292,-0.836083 z m -3.048,-1.27 c 0.465666,0 0.719666,0.232833 0.8255,0.6985 h -1.61925 c 0.105833,-0.455083 0.34925,-0.6985 0.79375,-0.6985 z" />
      <path
         id="path918"
         style="fill:#39b54a;fill-opacity:1;stroke-width:0.26458332"
         d="m 35.746697,50.098391 c 1.566334,0 2.63525,-0.783167 2.63525,-1.979083 0,-1.090084 -0.762,-1.566334 -1.87325,-1.8415 l -0.338666,-0.08467 c -0.391584,-0.09525 -0.66675,-0.179917 -0.66675,-0.3175 0,-0.116417 0.201083,-0.15875 0.508,-0.15875 0.47625,0 0.931333,0.116417 1.386416,0.34925 l 0.878417,-1.36525 c -0.592667,-0.41275 -1.42875,-0.635 -2.402417,-0.635 -1.524,0 -2.518833,0.85725 -2.518833,2.148417 0,0.963083 0.709083,1.354666 1.756833,1.608666 l 0.34925,0.08467 c 0.47625,0.116417 0.772584,0.1905 0.772584,0.359833 0,0.137584 -0.1905,0.1905 -0.455084,0.1905 -0.53975,0 -1.058333,-0.09525 -1.661583,-0.391583 l -0.783167,1.27 c 0.624417,0.518583 1.4605,0.762 2.413,0.762 z" />
      <path
         id="path920"
         style="fill:#39b54a;fill-opacity:1;stroke-width:0.26458332"
         d="m 40.433295,43.737808 c 0.6985,0 1.195916,-0.497417 1.195916,-1.195917 0,-0.6985 -0.497416,-1.2065 -1.195916,-1.2065 -0.6985,0 -1.2065,0.508 -1.2065,1.2065 0,0.6985 0.508,1.195917 1.2065,1.195917 z m -1.068917,6.25475 h 2.116667 v -5.820834 h -2.116667 z" />
      <path
         id="path922"
         style="fill:#39b54a;fill-opacity:1;stroke-width:0.26458332"
         d="m 44.333252,43.462641 h 1.778 l 2.137834,-1.830917 h -2.423584 z m 1.312334,6.63575 c 1.93675,0 3.2385,-1.2065 3.2385,-3.01625 0,-1.80975 -1.30175,-3.01625 -3.2385,-3.01625 -1.957917,0 -3.259667,1.2065 -3.259667,3.01625 0,1.80975 1.30175,3.01625 3.259667,3.01625 z m -0.01058,-1.80975 c -0.635,0 -1.068916,-0.486833 -1.068916,-1.2065 0,-0.73025 0.433916,-1.2065 1.068916,-1.2065 0.635,0 1.058334,0.47625 1.058334,1.2065 0,0.719667 -0.423334,1.2065 -1.058334,1.2065 z" />
      <path
         id="path924"
         style="fill:#39b54a;fill-opacity:1;stroke-width:0.26458332"
         d="m 53.550013,44.065891 c -0.60325,0 -1.23825,0.211667 -1.703916,0.677333 l -0.02117,-0.5715 h -2.042583 v 5.820834 h 2.116666 v -3.33375 c 0,-0.47625 0.34925,-0.783167 0.889,-0.783167 0.53975,0 0.889,0.306917 0.889,0.783167 v 3.33375 h 2.116667 v -3.640667 c 0,-1.375833 -0.899583,-2.286 -2.243667,-2.286 z" />
    </g>
  </g>
</svg>
