<!-- Generator: Adobe Illustrator 23.0.3, SVG Export Plug-In  -->
<svg version="1.1" xmlns="http://www.w3.org/2000/svg" xmlns:xlink="http://www.w3.org/1999/xlink" x="0px" y="0px"
	 width="954.423px" height="160.743px" viewBox="0 0 954.423 160.743" style="enable-background:new 0 0 954.423 160.743;"
	 xml:space="preserve">
<style type="text/css">
	.st0{fill:#FFFFFF;}
	.st1{fill:#3DAE2B;}
</style>
<defs>
</defs>
<g>
	<g>
		<path class="st0" d="M69.794,103.597c0,18.397-13.108,30.7-33,30.7H23.686v25.296H0V74.507h38.059
			C57.146,74.507,69.794,86.12,69.794,103.597z M45.417,104.402c0-6.209-3.794-10.349-9.774-10.349H23.686v20.697h11.958
			C42.083,114.75,45.417,110.61,45.417,104.402z"/>
		<path class="st0" d="M119.819,95.203l-1.494,21.156c-11.038,0-19.433,4.945-19.433,11.958v31.275H75.897V96.353h22.191
			l0.345,7.014C103.608,98.307,111.081,95.203,119.819,95.203z"/>
		<path class="st0" d="M180.765,96.353v63.239h-22.193l-0.229-5.634c-3.91,4.484-9.545,6.785-15.294,6.785
			c-13.682,0-22.881-8.279-22.881-20.812c0-12.648,11.154-21.042,27.825-21.042c2.991,0,6.325,0.345,9.774,0.805v-5.405h-33.689
			V96.353H180.765z M157.767,134.987c-2.415-0.345-4.713-0.575-6.783-0.575c-4.255,0-7.014,2.07-7.014,5.059
			c0,3.104,1.494,5.058,5.749,5.058C154.433,144.53,157.653,140.966,157.767,134.987z"/>
		<path class="st0" d="M187.667,127.972c0-19.662,14.372-32.769,35.989-32.769c3.91,0,8.623,0.92,11.843,2.185v21.042
			c-2.298-2.07-6.439-3.565-10.578-3.565c-8.047,0-13.453,5.174-13.453,13.108c0,7.819,5.406,13.108,13.453,13.108
			c4.484,0,8.969-1.724,11.269-4.139v21.042c-2.989,1.725-8.394,2.76-12.534,2.76C202.04,160.743,187.667,147.635,187.667,127.972z"
			/>
		<path class="st0" d="M286.097,115.094h-11.154v44.498h-22.996v-44.498h-11.038V96.353h11.038V77.841h22.996v18.512h11.154V115.094
			z"/>
		<path class="st0" d="M290.928,78.646c0-7.589,5.52-13.108,13.108-13.108c7.59,0,12.993,5.519,12.993,13.108
			c0,7.589-5.404,12.993-12.993,12.993C296.449,91.639,290.928,86.234,290.928,78.646z M292.424,96.353h22.996v63.239h-22.996
			V96.353z"/>
		<path class="st0" d="M322.322,127.972c0-19.662,14.372-32.769,35.989-32.769c3.91,0,8.623,0.92,11.843,2.185v21.042
			c-2.298-2.07-6.439-3.565-10.578-3.565c-8.047,0-13.453,5.174-13.453,13.108c0,7.819,5.406,13.108,13.453,13.108
			c4.484,0,8.969-1.724,11.269-4.139v21.042c-2.989,1.725-8.394,2.76-12.534,2.76C336.695,160.743,322.322,147.635,322.322,127.972z
			"/>
		<path class="st0" d="M436.275,96.353v63.239h-22.193l-0.229-5.634c-3.91,4.484-9.545,6.785-15.294,6.785
			c-13.682,0-22.881-8.279-22.881-20.812c0-12.648,11.154-21.042,27.825-21.042c2.991,0,6.325,0.345,9.774,0.805v-5.405h-33.689
			V96.353H436.275z M413.277,134.987c-2.415-0.345-4.713-0.575-6.783-0.575c-4.255,0-7.014,2.07-7.014,5.059
			c0,3.104,1.494,5.058,5.749,5.058C409.943,144.53,413.163,140.966,413.277,134.987z"/>
		<path class="st0" d="M511.592,120.038v39.554h-22.998v-36.219c0-5.174-3.794-8.509-9.657-8.509c-5.865,0-9.659,3.335-9.659,8.509
			v36.219h-22.996V96.353h22.191l0.231,6.209c5.058-5.059,11.958-7.359,18.511-7.359
			C501.819,95.203,511.592,105.091,511.592,120.038z"/>
		<path class="st0" d="M561.848,115.094h-11.154v44.498h-22.996v-44.498H516.66V96.353h11.038V77.841h22.996v18.512h11.154V115.094z
			"/>
		<path class="st0" d="M629.691,136.022h-41.164c1.036,4.254,3.565,6.784,9.428,6.784c4.484,0,8.049-1.61,10.578-4.37l17.823,8.624
			c-5.175,7.934-15.408,13.683-28.056,13.683c-20.466,0-34.265-12.648-34.265-31.85c0-20.122,13.224-33.69,33.115-33.69
			c19.892,0,33.115,12.648,33.115,31.735C630.265,130.042,630.036,133.377,629.691,136.022z M588.527,120.729h17.592
			c-1.15-5.059-3.908-7.589-8.969-7.589C592.321,113.14,589.677,115.785,588.527,120.729z"/>
		<path class="st0" d="M634.642,152.463l8.509-13.797c6.554,3.219,12.186,4.254,18.052,4.254c2.874,0,4.944-0.574,4.944-2.07
			c0-1.84-3.22-2.645-8.394-3.909l-3.794-0.919c-11.383-2.76-19.087-7.014-19.087-17.478c0-14.027,10.809-23.341,27.366-23.341
			c10.578,0,19.662,2.415,26.101,6.899l-9.543,14.832c-4.944-2.529-9.888-3.794-15.063-3.794c-3.334,0-5.518,0.46-5.518,1.724
			c0,1.494,2.989,2.415,7.242,3.45l3.679,0.92c12.074,2.989,20.352,8.163,20.352,20.006c0,12.993-11.612,21.502-28.63,21.502
			C650.51,160.743,641.425,158.098,634.642,152.463z"/>
		<path class="st1" d="M718.238,146.485c0-7.818,6.439-14.142,14.258-14.142s14.142,6.324,14.142,14.142
			s-6.323,14.258-14.142,14.258S718.238,154.303,718.238,146.485z"/>
		<path class="st0" d="M879.328,120.038v39.554h-22.996v-36.219c0-5.174-3.22-8.509-8.164-8.509c-4.944,0-8.164,3.335-8.164,8.509
			v36.219h-22.996v-36.219c0-5.174-3.22-8.509-8.164-8.509c-4.944,0-8.164,3.335-8.164,8.509v36.219h-22.996V96.353h22.191
			l0.231,5.634c4.713-4.599,10.922-6.784,17.016-6.784c7.13,0,12.993,2.645,17.018,7.359c5.058-5.174,12.072-7.359,18.971-7.359
			C868.75,95.203,879.328,105.091,879.328,120.038z"/>
		<path class="st0" d="M927.173,159.592l-8.969-14.028l-9.083,14.028H881.87l22.767-32.31l-21.388-30.93h27.366l7.473,11.958
			l7.59-11.958h27.251l-21.271,30.814l22.765,32.425H927.173z"/>
	</g>
	<g>
		<g>
			<path class="st1" d="M795.73,59.74c0.348-0.037,0.663-0.204,0.879-0.473c0.22-0.271,0.318-0.617,0.277-0.96
				c-0.26-2.214-0.517-4.422-0.776-6.633l-0.537-4.63c-0.082-0.69-0.701-1.194-1.398-1.132l-1.001,0.002l0.02-15.54l0.524-0.189
				l1.746-0.632c1.48-0.535,2.465-1.937,2.465-3.507c0-1.573-0.985-2.975-2.465-3.512L733.722,0.221
				c-0.821-0.295-1.717-0.295-2.537,0l-61.741,22.313c-1.478,0.537-2.463,1.939-2.463,3.512c0,1.57,0.985,2.972,2.463,3.507
				l22.825,8.25c-1.613,5.085-2.345,10.908-2.278,17.393c0.401,36.984,21.869,59.039,41.735,59.039
				c19.633,0,41.334-22.056,41.735-59.039c0.064-6.285-0.628-11.944-2.134-16.918l16.596-5.999l0.034,13.641l-1.003-0.002
				c-0.695-0.06-1.314,0.441-1.393,1.138l-1.3,11.261c-0.038,0.344,0.062,0.685,0.282,0.956c0.215,0.268,0.532,0.441,0.876,0.47
				L795.73,59.74z M731.602,105.256c-16.514,0-31.522-24.432-31.706-40.611c-0.26-22.917,20.342-6.448,31.804-4.89
				c11.827,1.607,18.115-1.267,16.649-6.582c0,0,17.188-7.289,14.956,11.481C760.891,84.95,748.934,105.256,731.602,105.256
				L731.602,105.256z M731.728,105.256"/>
		</g>
	</g>
</g>
</svg>