<!-- Generator: Adobe Illustrator 23.0.3, SVG Export Plug-In  -->
<svg version="1.1" xmlns="http://www.w3.org/2000/svg" xmlns:xlink="http://www.w3.org/1999/xlink" x="0px" y="0px"
	 width="1255.187px" height="479.995px" viewBox="0 0 1255.187 479.995" style="enable-background:new 0 0 1255.187 479.995;"
	 xml:space="preserve">
<style type="text/css">
	.st0{opacity:0.5;}
	.st1{fill:#3DAE2B;}
</style>
<defs>
</defs>
<g class="st0">
	<path class="st1" d="M0,159.839c0-31.68,23.04-54.24,54.72-54.24s54.239,22.561,54.239,54.24s-22.56,54.719-54.239,54.719
		S0,191.519,0,159.839z M13.92,239.518h81.6l8.64,240.478H4.8L13.92,239.518z"/>
	<path class="st1" d="M404.153,209.278v165.118h-95.999V223.198c0-21.601-15.84-35.521-40.32-35.521
		c-24.479,0-40.319,13.92-40.319,35.521v151.198h-95.999V0h95.999v134.398c20.64-19.68,48.479-28.8,74.879-28.8
		C363.354,105.599,404.153,146.879,404.153,209.278z"/>
	<path class="st1" d="M418.074,242.397c0-82.079,59.039-136.799,147.839-136.799c87.839,0,146.879,54.72,146.879,136.799
		s-59.04,136.799-146.879,136.799C477.113,379.196,418.074,324.477,418.074,242.397z M613.433,242.397c0-33.119-19.2-54.72-48-54.72
		s-48.479,21.601-48.479,54.72c0,32.64,19.68,54.72,48.479,54.72S613.433,275.037,613.433,242.397z"/>
	<path class="st1" d="M729.593,0h95.999v295.677h43.199v78.72H729.593V0z"/>
	<path class="st1" d="M1120.789,110.399v263.997h-92.639l-0.96-23.52c-16.32,18.72-39.84,28.319-63.84,28.319
		c-57.119,0-95.52-34.56-95.52-86.879c0-52.8,46.56-87.84,116.159-87.84c12.48,0,26.4,1.44,40.8,3.36v-22.56H884.151v-74.879
		H1120.789z M1024.79,271.678c-10.08-1.44-19.68-2.4-28.319-2.4c-17.76,0-29.28,8.64-29.28,21.12c0,12.96,6.24,21.119,24,21.119
		C1010.87,311.517,1024.311,296.637,1024.79,271.678z"/>
	<path class="st1" d="M1146.228,324.477c0-31.68,23.04-54.239,54.72-54.239s54.239,22.56,54.239,54.239s-22.56,54.72-54.239,54.72
		S1146.228,356.156,1146.228,324.477z M1151.027,19.2h99.359l-8.64,225.598h-81.6L1151.027,19.2z"/>
</g>
</svg>